<?xml version="1.0" encoding="UTF-8"?>
<svg width="22px" height="15px" viewBox="0 0 22 15" version="1.1" xmlns="http://www.w3.org/2000/svg" xmlns:xlink="http://www.w3.org/1999/xlink">
    <!-- Generator: Sketch 48.2 (47327) - http://www.bohemiancoding.com/sketch -->
    <title>checked</title>
    <desc>Created with Sketch.</desc>
    <defs></defs>
    <g id="homespice_signup_2" stroke="none" stroke-width="1" fill="none" fill-rule="evenodd" transform="translate(-26.000000, -873.000000)">
        <g id="User-information" transform="translate(18.000000, 238.000000)" fill="#516988" fill-rule="nonzero">
            <g id="General-Subscription" transform="translate(1.000000, 625.000000)">
                <g id="checked" transform="translate(7.000000, 10.000000)">
                    <path d="M20.1713778,0.000718178328 C19.7097942,0.0138046905 19.2715633,0.201123323 18.9494617,0.523017336 L8.20216891,10.9779855 L2.92568337,7.00672525 C2.42591941,6.59536633 1.73417243,6.48453866 1.12519702,6.71826184 C0.51622161,6.95198501 0.0886013784,7.49242289 0.0121825553,8.12491928 C-0.0642362678,8.75741566 0.222917332,9.37957925 0.759588986,9.74429325 L7.27647489,14.6430991 C7.98570264,15.1720465 8.98836515,15.1064998 9.61846596,14.4899971 L21.4673494,2.96340936 C21.9893471,2.46514925 22.1443683,1.70672367 21.8580177,1.05210404 C21.5716671,0.397484403 20.902391,-0.0197163049 20.1713778,0.000718178328 Z" id="Shape"></path>
                </g>
            </g>
        </g>
    </g>
</svg>