<?xml version="1.0" encoding="utf-8"?>
<svg version="1.1" id="Layer_1" xmlns="http://www.w3.org/2000/svg" xmlns:xlink="http://www.w3.org/1999/xlink" x="0px" y="0px"
	 viewBox="0 0 17 16" style="enable-background:new 0 0 17 16;" xml:space="preserve">
<style type="text/css">
	.st0{fill:#516988;}
</style>
<g>
	<path class="st0" d="M6.7,7.8L1.3,0H4c0.2,0,0.4,0,0.5,0.1c0.1,0.1,0.2,0.2,0.3,0.3l3.9,6C8.8,6.1,9,5.8,9.1,5.5l3.4-5.1
		c0.1-0.1,0.2-0.3,0.3-0.4C13,0,13.1,0,13.3,0h2.6l-5.4,7.6l5.6,8.4h-2.7c-0.2,0-0.4-0.1-0.5-0.2c-0.1-0.1-0.2-0.3-0.3-0.4l-4-6.3
		C8.4,9.5,8.3,9.7,8.2,10l-3.7,5.5c-0.1,0.1-0.2,0.3-0.3,0.4C4,15.9,3.8,16,3.6,16H1.1L6.7,7.8z"/>
</g>
</svg>
