<svg xmlns="http://www.w3.org/2000/svg" xmlns:xlink="http://www.w3.org/1999/xlink" width="245" height="260" viewBox="0 0 245 260">
    <defs>
        <ellipse id="a" cx="111.364" cy="111.429" rx="111.364" ry="111.429"/>
        <path id="c" d="M0 148.571V0h245v148.571h-11.136c0 61.54-49.86 111.429-111.364 111.429-61.504 0-111.364-49.888-111.364-111.429H0z"/>
        <path id="e" d="M92.803 0c28.702 0 51.97 23.268 51.97 51.97v5.755c5.267.884 9.28 5.465 9.28 10.983V81.72c0 5.616-4.157 10.261-9.562 11.026-1.908 18.392-13.41 33.934-29.415 41.538v17.087c39.086.783 70.53 32.712 70.53 71.985v3.214H0v-3.214c0-39.273 31.444-71.202 70.53-71.985v-17.087c-16.005-7.604-27.507-23.146-29.416-41.539-5.404-.764-9.561-5.41-9.561-11.025V68.708c0-5.518 4.013-10.099 9.28-10.983V51.97C40.833 23.268 64.101 0 92.803 0z"/>
        <path id="g" d="M62.178 1.251c0 11.016 13.92 19.946 31.089 19.946 17.17 0 31.09-8.93 31.09-19.946 0-.135-.003-.27-.007-.406 34.668 5.186 61.256 35.09 61.256 71.203v3.166H0v-3.166C0 35.611 27.066 5.496 62.19.711c-.008.18-.012.36-.012.54z"/>
        <path id="i" d="M0 0h245v260H0z"/>
        <path id="k" d="M137.348 183.493c-11.577-9.63-26.457-15.422-42.689-15.422h-3.712v-17.075c16.27-7.733 27.886-23.675 29.503-42.476 5.362-.804 9.474-5.431 9.474-11.02V85.429c0-4.315-2.45-8.057-6.036-9.909-.716-.26-1.432-.54-2.146-.837-.359-.1-.725-.18-1.098-.243v-.232c-11.857-5.277-23.314-15.643-31.45-29.743a80.735 80.735 0 0 1-6.538-14.382c-8.013 9.79-19.787 19.69-34.081 27.948-8.876 5.128-17.814 9.096-26.302 11.859v57.552a52.2 52.2 0 0 0 24.129 23.554v17.075h-3.713a66.74 66.74 0 0 0-20.417 3.18v42.32c0 13.099-9.68 23.935-22.272 25.737V68.714C0 30.764 30.747 0 68.674 0c37.928 0 68.674 30.764 68.674 68.714z"/>
        <filter id="m" width="106.9%" height="123.5%" x="-3.3%" y="-10.5%" filterUnits="objectBoundingBox">
            <feOffset dy="2" in="SourceAlpha" result="shadowOffsetOuter1"/>
            <feColorMatrix in="shadowOffsetOuter1" result="shadowMatrixOuter1" values="0 0 0 0 0 0 0 0 0 0 0 0 0 0 0 0 0 0 0.2 0"/>
            <feMerge>
                <feMergeNode in="shadowMatrixOuter1"/>
                <feMergeNode in="SourceGraphic"/>
            </feMerge>
        </filter>
    </defs>
    <g fill="none" fill-rule="evenodd">
        <g transform="translate(11.136 37.143)">
            <mask id="b" fill="#fff">
                <use xlink:href="#a"/>
            </mask>
            <use fill="#E6E6E6" xlink:href="#a"/>
            <g fill="#FFDEB5" mask="url(#b)">
                <path d="M0 0h222.727v222.857H0z"/>
            </g>
        </g>
        <mask id="d" fill="#fff">
            <use xlink:href="#c"/>
        </mask>
        <g mask="url(#d)">
            <g transform="translate(29.697 33.429)">
                <mask id="f" fill="#fff">
                    <use xlink:href="#e"/>
                </mask>
                <use fill="#D0C6AC" xlink:href="#e"/>
                <g fill="#EDB98A" mask="url(#f)">
                    <path d="M-29.697 0h245v226.571h-245z"/>
                </g>
                <path fill="#000" fill-opacity=".1" d="M40.833 87.316c0 28.702 23.268 51.97 51.97 51.97 28.702 0 51.97-23.268 51.97-51.97v7.429c0 28.702-23.268 51.97-51.97 51.97-28.702 0-51.97-23.268-51.97-51.97z" mask="url(#f)"/>
            </g>
            <g transform="translate(29.697 184.786)">
                <mask id="h" fill="#fff">
                    <use xlink:href="#g"/>
                </mask>
                <use fill="#E6E6E6" xlink:href="#g"/>
                <g fill="#FFAFB9" mask="url(#h)">
                    <path d="M-29.697-26.929h245V75.214h-245z"/>
                </g>
                <g fill="#000" fill-opacity=".6" mask="url(#h)" opacity=".6">
                    <ellipse cx="37.585" cy="25.859" rx="36.783" ry="24.991" transform="translate(55.682 -23.214)"/>
                </g>
            </g>
            <path fill="#FFF" d="M89.09 221.464c0 14.123 1.82 27.32 4.977 38.536h-64.37v-3.166c0-36.968 27.86-67.428 63.73-71.53-2.761 10.686-4.336 23.022-4.336 36.16zm126.213 35.37V260h-63.442c3.156-11.217 4.976-24.413 4.976-38.536 0-13.09-1.563-25.383-4.305-36.043 35.406 4.529 62.771 34.775 62.771 71.413z"/>
            <path fill="#CFCFCF" d="M93.731 183.857C90.02 201.81 91.566 227.19 98.371 260H83.523L70.53 226.571l5.568-8.357-5.568-5.571 17.633-27.857c1.882-.586 3.738-.896 5.568-.929zM151.269 183.857c3.712 17.953 2.165 43.333-4.64 76.143h14.848l12.993-33.429-5.568-8.357 5.568-5.571-17.633-27.857c-1.882-.586-3.738-.896-5.568-.929z"/>
            <g fill="#000">
                <path fill-opacity=".7" d="M109.508 138.357c0 7.18 5.816 13 12.992 13 7.176 0 12.992-5.82 12.992-13"/>
                <path fill-opacity=".16" d="M111.364 120.714c0 4.103 4.986 7.429 11.136 7.429 6.15 0 11.136-3.326 11.136-7.429"/>
                <g fill-opacity=".6" transform="translate(70.53 83.571)">
                    <ellipse cx="27.841" cy="20.429" rx="5.568" ry="5.571"/>
                    <ellipse cx="76.098" cy="20.429" rx="5.568" ry="5.571"/>
                </g>
                <g fill-opacity=".6" fill-rule="nonzero">
                    <path d="M85.036 92.076c3.633-5.115 13.593-7.984 22.173-5.876a1.856 1.856 0 1 0 .885-3.607c-9.964-2.448-21.498.873-26.084 7.331a1.855 1.855 0 1 0 3.026 2.152zM159.965 92.076c-3.634-5.115-13.594-7.984-22.174-5.876a1.856 1.856 0 1 1-.885-3.607c9.964-2.448 21.498.873 26.084 7.331a1.855 1.855 0 1 1-3.026 2.152z"/>
                </g>
            </g>
            <g>
                <mask id="j" fill="#fff">
                    <use xlink:href="#i"/>
                </mask>
                <g mask="url(#j)">
                    <g transform="translate(53.826 16.714)">
                        <mask id="l" fill="#fff">
                            <use xlink:href="#k"/>
                        </mask>
                        <use fill="#944F23" xlink:href="#k"/>
                        <g fill="#724133" mask="url(#l)">
                            <path d="M-53.826-16.714h245v260h-245z"/>
                        </g>
                    </g>
                    <path fill="#000" fill-opacity=".24" d="M191.174 200.207c-11.577-9.63-26.457-15.421-42.69-15.421h-3.711V167.71c16.269-7.733 27.885-23.675 29.503-42.476 5.362-.803 9.474-5.431 9.474-11.02v-12.071c0-4.315-2.45-8.056-6.035-9.908 4.52 1.65 9.06 2.546 13.46 2.617zM76.098 144.156a52.2 52.2 0 0 0 24.13 23.554v17.076h-3.713a66.74 66.74 0 0 0-20.417 3.178zm98.372-53.233c.366.163.732.32 1.098.474-.359-.1-.726-.18-1.098-.243z"/>
                    <g fill="#252C2F" fill-rule="nonzero" filter="url(#m)" transform="translate(62.178 85.429)">
                        <path d="M32.917 0c20.15 0 21.837 9.404 21.837 19.036 0 11.206-9.54 19.035-23.201 19.035h-2.56c-12.924 0-20.64-7.116-20.64-19.035C8.352 9.404 10.038 0 30.188 0h2.728zm.134 5.571h-2.996c-17.99 0-17.99 6.353-17.99 14.395 0 6.565 2.891 14.391 16.677 14.391h2.811c11.475 0 19.489-5.918 19.489-14.391v-.48c-.008-7.814-.36-13.915-17.99-13.915zM90.455 0c20.15 0 21.837 9.404 21.837 19.036 0 11.206-9.54 19.035-23.201 19.035h-2.56c-12.925 0-20.64-7.116-20.64-19.035C65.89 9.404 67.575 0 87.726 0h2.728zm.134 5.571h-2.997c-17.99 0-17.99 6.353-17.99 14.395 0 6.565 2.895 14.391 16.678 14.391h2.81c11.476 0 19.49-5.918 19.49-14.391v-.48c-.008-7.814-.36-13.915-17.99-13.915z"/>
                        <path d="M2.742 5.36C3.384 4.731 10.402 0 30.16 0c16.567 0 20.073 1.72 25.382 4.32l.388.191c.37.13 2.257.772 4.464.843a15.766 15.766 0 0 0 4.235-.807C70.688 1.6 76.62 0 90.483 0c19.758 0 26.777 4.732 27.419 5.36 1.516 0 2.742 1.197 2.742 2.679v2.68c0 1.481-1.226 2.68-2.742 2.68 0 0-6.405 0-6.405 2.679 0 2.68-1.82-3.878-1.82-5.36v-2.61c-3.345-1.28-9.33-3.664-19.194-3.664-10.99 0-16.462 1.95-21.157 3.886l.052.127-.002 1.844-2.057 4.968-2.542-1.005a12.09 12.09 0 0 0-1.396-.42c-1.893-.466-3.84-.609-5.56-.255a7.343 7.343 0 0 0-1.756.587l-2.452 1.2-2.454-4.794.11-2.13.074-.181c-4.049-1.888-7.782-3.827-21.182-3.827-9.863 0-15.849 2.383-19.193 3.664v2.61c0 1.482-2.742 8.04-2.742 5.36 0-2.68-5.484-2.68-5.484-2.68C1.228 13.398 0 12.2 0 10.718V8.04c0-1.482 1.228-2.68 2.742-2.68z"/>
                    </g>
                </g>
            </g>
        </g>
    </g>
</svg>
