<svg xmlns="http://www.w3.org/2000/svg" width="52" height="44.303" viewBox="0 0 52 44.303">
  <path id="Cart" d="M537.84,2333.372H560.7a3.437,3.437,0,0,0,3.151-2.064l6.859-15.89a3.375,3.375,0,0,0-.289-3.211,3.442,3.442,0,0,0-2.863-1.532H529.838a3.417,3.417,0,0,0-1.848.567l-2.3-5.22a1.709,1.709,0,0,0-1.571-1.021h-3.427a1.7,1.7,0,1,0,0,3.4H523l10.432,23.674a5.575,5.575,0,0,0-1.305,3.563c.061,1.417.033,3.393,1.64,4.176-.632.872-1.744,1.634-1.639,3.768a5.715,5.715,0,1,0,11.43,0,5.6,5.6,0,0,0-.484-2.27h12.4a5.594,5.594,0,0,0-.485,2.27,5.716,5.716,0,1,0,11.432,0,5.634,5.634,0,0,0-5.642-5.674.166.166,0,0,0-.074.011v-.011H538.119c-.016-.012-.036-.012-.052-.023a1.532,1.532,0,0,1-.227.023,2.27,2.27,0,0,1,0-4.54Zm29.721-19.293-6.858,15.889H536.7l-6.858-15.889Zm-27.435,29.508a2.287,2.287,0,1,1-2.286-2.271A2.286,2.286,0,0,1,540.126,2343.587Zm22.863,0a2.287,2.287,0,1,1-2.286-2.271A2.287,2.287,0,0,1,562.989,2343.587Z" transform="translate(-518.991 -2305)" fill="#144F5A" fill-rule="evenodd"/>
</svg>
