<svg xmlns="http://www.w3.org/2000/svg" width="28" height="28" viewBox="0 0 28 28">
  <path id="User" d="M182,1243a14,14,0,1,0,14,14,14,14,0,0,0-14-14Zm-12.091,14a12.091,12.091,0,1,1,21.594,7.458,12.234,12.234,0,0,0-6.038-4.7,6.054,6.054,0,0,0,1.625-4.187c0-3.156-2.284-5.727-5.091-5.727s-5.091,2.571-5.091,5.727a6.025,6.025,0,0,0,1.753,4.315,11.335,11.335,0,0,0-5.918,4.894A12.058,12.058,0,0,1,169.909,1257Zm12.409,2.227c-.349,0-.7.026-1.041.057a3.73,3.73,0,0,1-2.459-3.716c0-2.106,1.425-3.818,3.182-3.818s3.182,1.712,3.182,3.818a3.777,3.777,0,0,1-2.34,3.685C182.668,1259.24,182.494,1259.227,182.318,1259.227Zm-8.156,6.968a9.308,9.308,0,0,1,7.02-4.976,4.93,4.93,0,0,0,.817.076,4.428,4.428,0,0,0,1.053-.121,9.774,9.774,0,0,1,7.115,4.722A12.047,12.047,0,0,1,174.163,1266.2Z" transform="translate(-168 -1243)" fill="#0eb58f" fill-rule="evenodd"/>
</svg>
