<svg xmlns="http://www.w3.org/2000/svg" width="100.094" height="100.739" viewBox="0 0 100.094 100.739">
  <g id="Group_1254" data-name="Group 1254" transform="translate(-8.372 -41.683)">
    <g id="Group_1253" data-name="Group 1253">
      <path id="Path_1160" data-name="Path 1160" d="M62.983,118.488a14.232,14.232,0,0,1-6.632-1.733,16.5,16.5,0,0,1-8.55-12.819,27.646,27.646,0,0,1,1.514-11.823c.017-.045.035-.1.062-.189a41.706,41.706,0,0,1,9.1-15.311l.409-.409c3.083-3,6.132-4.512,9.064-4.512a8.3,8.3,0,0,1,1.486.134c3.237.607,6.043,3.1,8.137,7.217a10.665,10.665,0,0,1,6.6-2.522h1.312a3.182,3.182,0,0,1,2.783,3.4A3.22,3.22,0,0,1,85.1,82.987c-1.491,0-1.763.346-3.069,2.007l-.225.287-.3.394A5.465,5.465,0,0,1,77.6,87.687q-.159.012-.321.012h0A5.054,5.054,0,0,1,73.573,86L71.9,84.321l1.364,7.432a3.591,3.591,0,0,1-1.09,3.364,3.79,3.79,0,0,1-2.681,1.123,3.969,3.969,0,0,1-.655-.056,5.415,5.415,0,0,0-1.045-.1,6.819,6.819,0,0,0-1.927.292l-3.008.8a5.467,5.467,0,0,1-1.465.2A5.054,5.054,0,0,1,57.674,95.8a4,4,0,0,1-.96-4.282A5.031,5.031,0,0,1,61.453,88.3c.152,0,.305.007.457.022l1.706.2A1.445,1.445,0,0,1,63.46,91.4a1.627,1.627,0,0,1-.217-.015l-1.693-.2c-.051,0-.106-.007-.162-.007a2.1,2.1,0,0,0-1.93,1.194,1.47,1.47,0,0,0,.343,1.55,2.271,2.271,0,0,0,1.745.672,3.488,3.488,0,0,0,.681-.068l2.983-.8a9,9,0,0,1,2.7-.365c.454,0,.916.022,1.39.056a1.34,1.34,0,0,0,.235.025.706.706,0,0,0,.607-.3.883.883,0,0,0,.261-.874l-1.5-8.116a2.629,2.629,0,0,1,1.341-2.8,2.5,2.5,0,0,1,1.211-.314,2.6,2.6,0,0,1,1.827.761l2.2,2.2a2.583,2.583,0,0,0,1.9.817,2.324,2.324,0,0,0,1.782-.9l.291-.388c1.572-2.063,2.519-3.307,5.518-3.413a.386.386,0,0,0,.425-.417c0-.259-.038-.375-.272-.422l-.945.006a7.167,7.167,0,0,0-5.1,2.116,2.416,2.416,0,0,1-1.693.708,2.168,2.168,0,0,1-.354-.029,2.308,2.308,0,0,1-1.707-1.352c-1.784-3.668-3.9-5.77-6.3-6.25a5.785,5.785,0,0,0-.895-.069c-2.262,0-4.734,1.277-7.148,3.692l-.3.3a37.694,37.694,0,0,0-8.526,14.37,26.3,26.3,0,0,0-1.392,10.7,13.787,13.787,0,0,0,7.055,10.578,11.286,11.286,0,0,0,5.418,1.413,11.565,11.565,0,0,0,1.8-.145,8.557,8.557,0,0,0,6.476-5.807,6.225,6.225,0,0,0-1.442-6.224,15.292,15.292,0,0,0-1.265-1.168,1.446,1.446,0,0,1-.542-.947,1.382,1.382,0,0,1,.3-1.051,1.446,1.446,0,0,1,1.127-.553,1.379,1.379,0,0,1,.871.308,13.22,13.22,0,0,1,1.724,1.522,8.678,8.678,0,0,1,2.07,8.986,11.286,11.286,0,0,1-8.621,7.693A10.542,10.542,0,0,1,62.983,118.488Z" fill="#fff"/>
      <path id="Path_1161" data-name="Path 1161" d="M59.783,104.788a3.058,3.058,0,0,1-1.943-1.438,4.143,4.143,0,0,1-.128-3.429,1.361,1.361,0,0,1,1.3-.962,1.455,1.455,0,0,1,.462.078,1.363,1.363,0,0,1,.879,1.757,1.873,1.873,0,0,0-.116,1.083c.016.032.039.047.1.08a.683.683,0,0,1,.13.1,1.3,1.3,0,0,1,.776.585,1.267,1.267,0,0,1,.115,1.056,1.166,1.166,0,0,1-1.269,1.093Z" fill="#fff"/>
      <path id="Path_1162" data-name="Path 1162" d="M100.783,142.288a1.514,1.514,0,0,1-1.079-1.73l3.506-12.529A51.482,51.482,0,0,0,104.9,116.2a48.811,48.811,0,0,0-2.287-15.31l-4.3-14.1a31.106,31.106,0,0,1-.6-16.048,27.714,27.714,0,0,1,2.527-6.471A43.072,43.072,0,0,0,105.7,43.805v-.5a1.383,1.383,0,1,1,2.766,0v.5a46.148,46.148,0,0,1-5.834,21.835,25.9,25.9,0,0,0-1.778,20.382l4.3,14.1a51.519,51.519,0,0,1,2.412,16.189,53.487,53.487,0,0,1-1.809,12.567l-3.5,12.5a1.069,1.069,0,0,1-1.174.907Z" fill="#fff"/>
      <path id="Path_1163" data-name="Path 1163" d="M69.055,142.358a.627.627,0,0,0-.373-.07,1.369,1.369,0,0,1-1.274-.914l-1.988-4.862a19.673,19.673,0,0,1-1.4-8.47,42.371,42.371,0,0,1-9.513-3.746C54,127.9,53.32,135.779,56.313,139.939a1.371,1.371,0,0,1,.288,1.04,1.446,1.446,0,0,1-.542.947,1.6,1.6,0,0,1-.876.362,1.47,1.47,0,0,1-1.136-.626c-3.975-5.382-2.857-14.893-2.144-18.931a27.84,27.84,0,0,1-8.562-8.68c-3.561-6-4.244-13.274-2.032-21.619,1.759-6.743,5.658-12.735,9.84-18.789l.466-.7c3.308-4.956,6.175-9.25,6.467-12.9a10.766,10.766,0,0,1-4.705-17.94,1.441,1.441,0,0,1,1.016-.427,1.384,1.384,0,0,1,.991.421,1.459,1.459,0,0,1,.42.951,1.393,1.393,0,0,1-.42,1.05,8.218,8.218,0,0,0-1.254,9.661c1.589,2.715,4.687,4.212,8.72,4.212a21.832,21.832,0,0,0,5.757-.847A1.272,1.272,0,0,1,69,57.069a1.462,1.462,0,0,1,1.352,1.046,1.41,1.41,0,0,1-.978,1.759,23.578,23.578,0,0,1-6.39.915,16.727,16.727,0,0,1-2.094-.14c-.536,4.511-3.858,9.374-7.372,14.515l-.495.743c-3.447,5.162-7.355,11.012-8.965,17.17-1.977,7.611-1.381,14.167,1.77,19.483a24.46,24.46,0,0,0,7.929,7.979,1.332,1.332,0,0,1,.839.522,38.974,38.974,0,0,0,9.762,4.12,20.558,20.558,0,0,1,1.062-3.681,1.335,1.335,0,0,1,1.271-.9,1.385,1.385,0,0,1,.619.147,1.3,1.3,0,0,1,.772.742,1.374,1.374,0,0,1-.044,1.139,17.443,17.443,0,0,0,.008,12.965l2,4.9a1.461,1.461,0,0,1-.737,1.862l-.127.063Z" fill="#fff"/>
    </g>
    <path id="Path_1164" data-name="Path 1164" d="M24.463,107.923a22.175,22.175,0,0,1-1.872-2.46,9.935,9.935,0,0,1-1.958-5.182,4.986,4.986,0,0,1,1.632-3.93,4.949,4.949,0,0,1,6.166-.009,5.019,5.019,0,0,1,1.69,3.939,9.935,9.935,0,0,1-1.958,5.182,22.286,22.286,0,0,1-1.871,2.461l-.915,1.013Zm.914-10.19a2.43,2.43,0,0,0-1.528.5,2.369,2.369,0,0,0-.752,2.044,8.463,8.463,0,0,0,1.554,3.831c.253.385.485.7.726,1.015.223-.29.469-.624.726-1.015a8.463,8.463,0,0,0,1.554-3.831,2.334,2.334,0,0,0-.789-2.035A2.5,2.5,0,0,0,25.377,97.733Zm0-2.881a4.329,4.329,0,0,1-4.324-4.325V78.335H9.6A1.233,1.233,0,0,1,8.372,77.1V49.808A8.134,8.134,0,0,1,16.5,41.683h17.76a8.134,8.134,0,0,1,8.125,8.125V77.1a1.233,1.233,0,0,1-1.232,1.232H29.7V90.527A4.33,4.33,0,0,1,25.377,94.852Zm-1.861-4.325a1.861,1.861,0,0,0,3.722,0v-.186H23.516Zm3.722-2.65V78.335H23.516v9.542Zm12.68-12.006V49.808a5.6,5.6,0,0,0-5.661-5.662H16.5a5.6,5.6,0,0,0-5.661,5.662V75.871Zm-25.675-1.25a1.235,1.235,0,0,1-1.232-1.233v-7.5a1.233,1.233,0,0,1,1.232-1.231H36.511a1.233,1.233,0,0,1,1.232,1.231v7.5a1.235,1.235,0,0,1-1.232,1.233Zm21.036-2.465v-5.03H29.7v5.03Zm-8.042,0v-5.03H23.516v5.03Zm-6.184,0v-5.03H15.475v5.03Zm-6.81-8.84a1.233,1.233,0,0,1-1.232-1.232V51.858a6.106,6.106,0,0,1,6.1-6.1H31.645a6.106,6.106,0,0,1,6.1,6.1V62.084a1.233,1.233,0,0,1-1.232,1.232Zm21.036-2.464V51.858a3.6,3.6,0,0,0-3.634-3.637H19.109a3.6,3.6,0,0,0-3.634,3.637v8.994ZM18.428,57.9a1.233,1.233,0,1,1-.013-2.465H32.326a1.245,1.245,0,0,1,.9.373,1.233,1.233,0,0,1-.883,2.092Zm0-4.265a1.239,1.239,0,0,1-.891-.37,1.233,1.233,0,0,1,.88-2.094H32.326a1.232,1.232,0,1,1,.011,2.464Z" fill="#fff"/>
  </g>
</svg>
