<svg xmlns="http://www.w3.org/2000/svg" width="104" height="91" viewBox="0 0 104 91">
    <g fill="none" opacity=".15" transform="translate(1)">
        <circle cx="65.859" cy="37.1" r="37.1" fill="#F1B093"/>
        <path fill="#C73F4B" d="M30.48 19.508l-1.548-2.109c-1.464 1.083-2.834 2.288-4.096 3.601l1.879 1.82c1.16-1.207 2.42-2.315 3.766-3.312zM49.23 14.96l.473-2.573c-1.807-.328-3.644-.467-5.48-.414l.079 2.615c1.65-.053 3.303.072 4.928.372zM20.877 30.98c.78-1.496 1.663-2.935 2.643-4.307l-2.134-1.515c-1.037 1.472-1.972 3.012-2.8 4.612l2.29 1.21zM68.457 29.697c.835 1.466 1.573 2.985 2.21 4.547l2.421-.988c-.678-1.67-1.464-3.292-2.354-4.858l-2.277 1.299zM72.282 39.043c.442 1.635.786 3.294 1.03 4.97l2.588-.378c-.26-1.776-.624-3.536-1.092-5.27l-2.526.678zM71.68 64.09l2.486.808c.555-1.708 1.008-3.448 1.358-5.21l-2.567-.51c-.327 1.661-.754 3.301-1.277 4.911zM59.805 16.498c-1.526-1.008-3.146-1.865-4.838-2.56l-.991 2.42c1.535.632 3.007 1.411 4.393 2.326l1.436-2.186zM73.763 49.073c.017.487.025.977.025 1.467 0 1.207-.05 2.422-.142 3.612l2.604.207c.1-1.257.154-2.542.154-3.819 0-.524 0-1.036-.026-1.554l-2.615.087zM13.933 45.178c-.202 1.78-.303 3.57-.303 5.362 0 1.033.034 2.08.101 3.11l2.615-.167c-.067-.98-.1-1.96-.1-2.943-.002-1.695.091-3.389.28-5.074l-2.593-.288zM67.724 23.898c-1.108-1.431-2.325-2.774-3.64-4.018l-1.792 1.904c1.216 1.151 2.342 2.394 3.368 3.718l2.064-1.604zM39.404 15.263l-.624-2.54c-1.778.442-3.507 1.063-5.16 1.854l1.12 2.36c1.494-.715 3.057-1.276 4.664-1.674zM17.564 69.26c.741 1.643 1.592 3.233 2.546 4.76l2.223-1.385c-.89-1.431-1.685-2.92-2.38-4.455l-2.389 1.08zM18.841 35.613l-2.458-.893c-.618 1.687-1.133 3.409-1.543 5.158l2.548.596c.383-1.649.868-3.272 1.453-4.86zM69.807 68.793c-.72 1.525-1.541 2.999-2.459 4.413l2.193 1.425c.98-1.513 1.86-3.09 2.629-4.72l-2.363-1.118zM60.696 80.688l1.652 2.024c1.405-1.15 2.716-2.412 3.92-3.772l-1.96-1.722c-1.108 1.253-2.316 2.414-3.612 3.47zM25.292 76.72L23.3 78.4c1.173 1.387 2.454 2.678 3.833 3.861l1.7-1.99c-1.273-1.088-2.456-2.275-3.54-3.551zM16.957 58.52l-2.57.468c.32 1.767.744 3.513 1.27 5.23l2.501-.773c-.498-1.616-.9-3.26-1.201-4.925zM38.478 26.348c.073 3.559 2.98 6.405 6.539 6.405 3.56 0 6.466-2.846 6.54-6.405v-2.615c.048-2.369-1.187-4.579-3.23-5.777-2.044-1.199-4.576-1.199-6.62 0-2.043 1.198-3.278 3.408-3.23 5.777v2.615zm2.615-2.615c0-2.165 1.755-3.92 3.92-3.92s3.92 1.755 3.92 3.92v2.615c0 2.165-1.755 3.92-3.92 3.92s-3.92-1.755-3.92-3.92v-2.615z"/>
        <path fill="#C73F4B" d="M58.618 65.318c.292.218.66.304 1.019.239.357-.065.672-.277.868-.583l7.42-11.656c1.337-2.089 1.371-4.755.09-6.877l-4.662-7.765c-1.184-1.964-3.307-3.167-5.6-3.175H32.287c-2.293.008-4.416 1.211-5.6 3.175l-4.668 7.765c-1.28 2.124-1.24 4.79.101 6.877l7.42 11.656c.196.306.51.518.869.583.358.065.727-.021 1.018-.239l2.383-1.786-5.754 25.295c-.078.338-.018.693.167.987.184.293.478.502.816.578.097.023.197.034.297.034h7.84c.607 0 1.134-.417 1.274-1.008l4.992-21.224h3.161l4.993 21.224c.139.591.666 1.009 1.274 1.008h7.84c.722 0 1.307-.585 1.307-1.308 0-.094-.012-.188-.033-.28L56.23 63.532l2.388 1.786zm.462 22.493H53.9l-4.995-21.224c-.138-.59-.665-1.008-1.271-1.008H42.4c-.606 0-1.134.417-1.274 1.008L36.134 87.81h-5.172l6.16-27.16c.024-.103.035-.208.034-.314v-15.68c0-.722-.585-1.307-1.308-1.307h-3.92c-.496 0-.949.28-1.17.725l-2.615 5.23c-.204.407-.18.891.061 1.277l5.903 9.444-3.139 2.352-6.65-10.463c-.799-1.253-.82-2.85-.056-4.125l4.66-7.75c.71-1.178 1.983-1.902 3.36-1.91h25.46c1.375.008 2.648.73 3.36 1.907l4.659 7.77c.77 1.273.748 2.873-.056 4.125l-6.659 10.463-3.138-2.355L61.81 50.6c.24-.387.264-.871.062-1.28l-2.618-5.23c-.22-.446-.674-.728-1.17-.728h-3.92c-.723 0-1.308.585-1.308 1.307v15.68c-.003.106.008.211.033.314l6.191 27.149zM34.555 55.79l-3.733-5.975 1.938-3.853h1.806l-.011 9.828zm20.924 0v-9.828h1.806l1.927 3.853-3.733 5.975z"/>
        <circle cx="6.126" cy="70.823" r="1" fill="#C73F4B" stroke="#C73F4B" stroke-linecap="round" stroke-linejoin="round" stroke-width=".84"/>
        <circle cx="6.126" cy="67.141" r="1" fill="#C73F4B" stroke="#C73F4B" stroke-linecap="round" stroke-linejoin="round" stroke-width=".84"/>
        <circle cx="9.162" cy="68.905" r="1.002" fill="#C73F4B" stroke="#C73F4B" stroke-linecap="round" stroke-linejoin="round" stroke-width=".84"/>
        <path fill="#C73F4B" stroke="#C73F4B" stroke-linecap="round" stroke-linejoin="round" stroke-width="1.68" d="M14.129 68.376h-1.16c-.112-1.464-.794-2.826-1.898-3.794l1.056-1.056c.145-.129.207-.328.16-.517-.046-.188-.194-.336-.382-.382-.19-.047-.388.015-.517.16l-1.16 1.162c-.726-.427-1.534-.697-2.371-.792v-1.529c-.02-.277-.25-.49-.528-.49-.277 0-.508.213-.528.49v1.529c-.835.103-1.642.372-2.371.792l-1.162-1.162c-.205-.206-.537-.208-.744-.004-.206.204-.208.537-.004.743l1.053 1.056c-1.103.969-1.782 2.33-1.893 3.794H.526c-.276.02-.49.25-.49.528 0 .277.214.507.49.528H1.68c.111 1.479.819 2.85 1.96 3.796l-1.12 1.12c-.102.096-.16.23-.16.37 0 .14.058.274.16.37.1.096.231.152.37.156.137-.005.268-.06.366-.156L4.48 73.86c.702.432 1.499.685 2.321.737v1.582c.02.276.25.49.528.49.277 0 .508-.214.528-.49v-1.582c.816-.078 1.607-.33 2.318-.737l1.213 1.213c.097.1.23.156.37.156.138 0 .272-.056.369-.156.1-.097.157-.23.157-.37 0-.14-.057-.273-.157-.37l-1.12-1.12c1.112-.954 1.8-2.312 1.91-3.774h1.159c.142.01.282-.043.383-.144.1-.1.154-.24.146-.382 0-.314-.16-.538-.476-.538zm-2.162.58c0 2.562-2.077 4.64-4.64 4.64-2.562 0-4.639-2.078-4.639-4.64v-.157c0-2.563 2.077-4.64 4.64-4.64 2.562 0 4.64 2.077 4.64 4.64v.157z"/>
        <circle cx="74.603" cy="16.635" r="1" fill="#C73F4B" stroke="#C73F4B" stroke-linecap="round" stroke-linejoin="round" stroke-width=".84"/>
        <circle cx="76.661" cy="18.732" r="1" fill="#C73F4B" stroke="#C73F4B" stroke-linecap="round" stroke-linejoin="round" stroke-width=".84"/>
        <circle cx="73.466" cy="19.082" r="1" fill="#C73F4B" stroke="#C73F4B" stroke-linecap="round" stroke-linejoin="round" stroke-width=".84"/>
        <path fill="#C73F4B" stroke="#C73F4B" stroke-linecap="round" stroke-linejoin="round" stroke-width="1.68" d="M80.724 17.9h-.96c-.094-1.213-.66-2.341-1.574-3.144l.874-.874c.147-.172.137-.428-.023-.588-.16-.16-.415-.171-.588-.025l-.96.96c-.602-.35-1.269-.573-1.96-.655V12.32c0-.241-.196-.437-.437-.437s-.437.196-.437.437v1.266c-.69.088-1.356.31-1.96.655l-.96-.96c-.17-.143-.422-.133-.58.022-.16.155-.177.405-.039.58l.874.873c-.914.803-1.478 1.931-1.571 3.144h-.983c-.241 0-.437.196-.437.437s.196.437.437.437h.963c.09 1.225.672 2.36 1.616 3.147l-.899.916c-.083.08-.13.19-.13.306 0 .116.047.227.13.307.084.08.193.126.308.132.114-.006.223-.053.305-.132l1.005-1.005c.58.359 1.24.568 1.921.61v1.305c0 .241.196.437.437.437s.437-.196.437-.437v-1.305c.677-.062 1.334-.27 1.923-.61l1.006 1.005c.079.084.19.131.305.131.115 0 .226-.047.305-.131.084-.08.132-.19.132-.307 0-.116-.048-.226-.132-.306l-.916-.916c.922-.798 1.488-1.93 1.571-3.147h.963c.118.007.234-.036.317-.12.084-.083.128-.199.12-.317-.008-.26-.14-.437-.403-.437zm-1.79.482c-.055 2.084-1.76 3.743-3.845 3.743-2.084 0-3.79-1.66-3.846-3.743v-.132c.056-2.083 1.762-3.743 3.846-3.743s3.79 1.66 3.846 3.743v.132z"/>
    </g>
</svg>
