<svg xmlns="http://www.w3.org/2000/svg" width="86.83" height="116" viewBox="0 0 86.83 116">
  <g id="Group_1255" data-name="Group 1255" transform="translate(297.104 -25.145)">
    <path id="Path_1165" data-name="Path 1165" d="M-252.84,29.637c8.435-6.9,21.961-5.607,29.388,2.226a22.628,22.628,0,0,1,5.81,21.9,22.239,22.239,0,0,1-14.7,15.455c-1.562.851-1.9-.992-2.507-2,7.224-2.351,13.5-8.263,14.69-15.986A19.833,19.833,0,0,0-232.308,29.5a19.829,19.829,0,0,0-17.384,1.468c-1.3,1.086-3.788.89-3.147-1.335" transform="translate(-9.672)" fill="#fff"/>
    <path id="Path_1166" data-name="Path 1166" d="M-237.153,36.28c1.062-.976,2.507-.32,3.741-.156a14.563,14.563,0,0,1,10.449,8.442c2.21,5.49.883,12.378-3.717,16.26-.9,1.1-3.054.8-2.929-.89,1.359-2.155,3.53-3.819,4.194-6.381a11.384,11.384,0,0,0-5.357-13.347c-2.1-1.132-4.553-1.164-6.779-1.913.1-.5.3-1.515.4-2.015" transform="translate(-13.044 -2.324)" fill="#fff"/>
    <path id="Path_1167" data-name="Path 1167" d="M-296.553,39.542c2.522-.765,5.217-.5,7.818-.781,11.223-.476,22.859-1.257,33.668,2.437,1.289.234,2.031,1.335,2.726,2.327-1.07.648-2.14,1.8-3.507,1.148-12.745-3.694-26.186-2.749-39.259-2.07-1.749.3-2.468-1.882-1.445-3.061" transform="translate(-0.018 -2.892)" fill="#fff"/>
    <path id="Path_1168" data-name="Path 1168" d="M-238.87,47.678c4.022-1.609,8.481,3.2,6.443,7.052a5.257,5.257,0,0,1-8.38,1.695c-2.78-2.491-1.64-7.638,1.937-8.747" transform="translate(-11.991 -4.865)" fill="#fff"/>
    <path id="Path_1169" data-name="Path 1169" d="M-266.12,64.235a18.224,18.224,0,0,1,3.218-2.288c1.765-.031,2.788,2.429,1.039,3.335a13.385,13.385,0,0,0-4.858,9.051c-1.351,10.434,2.109,20.875.617,31.317a21.12,21.12,0,0,1-4.553,10.246,1.68,1.68,0,0,1-3-.82c.961-3.03,3.264-5.5,3.827-8.692,2.273-12.824-3.671-26.225,1.3-38.7a69.93,69.93,0,0,0-26.053,4.8c-1.476.953-3.35-1.265-2.132-2.608a13.432,13.432,0,0,1,3.343-1.64,72.933,72.933,0,0,1,27.248-4" transform="translate(0 -8.061)" fill="#fff"/>
    <path id="Path_1170" data-name="Path 1170" d="M-230.6,85.146c-.781-2.062,2.468-3.686,3.147-1.265,1.624,6.029,1.656,12.488,4.186,18.29,2.273,4.787,6.115,8.575,8.794,13.12a71.9,71.9,0,0,0,4.3,6.607c1.554,2.116,4.647,2.07,6.3,4.053.875,1.195.109,2.78-.9,3.608a10.47,10.47,0,0,1-13.667-.843c-3.054-2.905-6.115-6.365-10.5-7.076-3.944-.742-9.044-.578-11.246-4.647-2.359-6.263.539-12.9.406-19.313-.133-2.733-2.023-4.811-3.218-7.122a2.05,2.05,0,0,1,2.39-1.757c3.194,2.366,4.678,6.591,4.506,10.473-.617,5.287-2.452,10.738-.976,16.033,1.827,2.663,5.514,2,8.255,2.741,5.295.687,9.262,4.506,12.839,8.122,2.132,2.273,5.42,2.093,8.231,1.554-5.006-1.718-7.333-6.646-9.9-10.84-3.132-5.147-7.724-9.465-9.653-15.3A98.055,98.055,0,0,1-230.6,85.146m-11.09-19.766c.906-1.117,2.132-.281,3.2.039-3.616,14.6-8.567,28.943-10.379,43.945-.328,3.124-.859,6.31-.266,9.442A97.051,97.051,0,0,0-246.3,129.02c1.109,3.78,1.468,7.755,2.8,11.48.906,2.569,4.209,3.561,4.631,6.4a3.56,3.56,0,0,1-2.343,2.468,10.531,10.531,0,0,1-12.027-4.647c-1.812-3.124-2.944-6.755-5.685-9.247-1.906-1.882-4.491-2.8-6.709-4.225-1.445-1.179.445-3.647,2.038-2.741,3.8,1.57,7.451,3.952,9.707,7.474,1.773,2.5,2.585,5.568,4.514,7.966,1.429,1.82,3.8,2.195,5.928,2.608-3.374-3.015-4.4-7.482-5.162-11.746-1.109-6.99-4.92-13.519-4.249-20.758,1.054-15.088,5.576-29.614,9.567-44.117.469-1.531.648-3.218,1.593-4.561" transform="translate(-6.782 -8.689)" fill="#fff"/>
    <path id="Path_1171" data-name="Path 1171" d="M-293.4,137.712c-2.8-11.441,5.482-24.265,17.15-26.124,1.492-.367,2.062,2.562.344,2.765a20.761,20.761,0,0,0-11.363,7.685,19.029,19.029,0,0,0-.539,21.461c3.624,5.873,10.567,9.067,17.369,8.856a26.191,26.191,0,0,1-.2,2.7c-10.52,1.164-20.8-7.091-22.765-17.345" transform="translate(-0.69 -18.927)" fill="#fff"/>
    <path id="Path_1172" data-name="Path 1172" d="M-225.681,118.743c.515-1.734,2.179-.976,3.358-.508a4.682,4.682,0,0,0,1.82,4.748c1.476,1.117-.4,2.234-1.039,3.179-2.843-1.179-5.373-4.194-4.139-7.419" transform="translate(-15.573 -20.264)" fill="#fff"/>
    <path id="Path_1173" data-name="Path 1173" d="M-279.019,143.625c-4.483-5.654-2.624-15.1,3.952-18.259,1.179-.289,1.437,1.14,2.062,1.788-2.39,1.882-4.826,4.116-5.357,7.271-.867,3.452,1.328,6.451,2.8,9.34-.64,1.827-2.749,1.328-3.452-.141" transform="translate(-3.424 -21.943)" fill="#fff"/>
    <path id="Path_1174" data-name="Path 1174" d="M-268.533,135.1c2.593-2.023,6.56,1.039,5.49,4.069-.6,2.679-4.444,3.421-6.209,1.476a3.653,3.653,0,0,1,.718-5.545" transform="translate(-5.889 -23.942)" fill="#fff"/>
    <path id="Path_1175" data-name="Path 1175" d="M-232.575,156.389c3.725-1.148,4.936,5.342,1.148,5.685-3.616.9-4.811-5.139-1.148-5.685" transform="translate(-13.646 -28.716)" fill="#fff"/>
  </g>
</svg>
