<svg xmlns="http://www.w3.org/2000/svg" width="103.422" height="103.595" viewBox="0 0 103.422 103.595">
  <g id="Group_1261" data-name="Group 1261" transform="translate(58.775 -193.897)">
    <path id="Path_1180" data-name="Path 1180" d="M-6.736,286.241a13.369,13.369,0,0,1-2-.153,1.6,1.6,0,0,1-1.389-1.771,1.6,1.6,0,0,1,1.59-1.42,1.642,1.642,0,0,1,.184.01,10.511,10.511,0,0,0,1.59.129h0c7.738,0,11.177-9.617,11.21-9.714A1.6,1.6,0,0,1,7.5,274.3l-.035.1a23.072,23.072,0,0,1-3.647,6.372C.9,284.35-2.75,286.241-6.736,286.241Z" fill="#fff"/>
    <path id="Path_1181" data-name="Path 1181" d="M-45.033,252.939a1.614,1.614,0,0,1-1.441-.922,12.126,12.126,0,0,1,.034-10.739,14.568,14.568,0,0,1,3.011-4.212,1.616,1.616,0,0,1,1.089-.427,1.605,1.605,0,0,1,1.19.529,1.606,1.606,0,0,1-.117,2.264c-.214.2-5.279,4.911-2.314,11.222a1.593,1.593,0,0,1,.059,1.225,1.594,1.594,0,0,1-.826.906,1.562,1.562,0,0,1-.682.154Z" fill="#fff"/>
    <path id="Path_1182" data-name="Path 1182" d="M-45.029,252.371h0Z" fill="#fff"/>
    <path id="Path_1183" data-name="Path 1183" d="M29.8,264.787a1.6,1.6,0,0,1-1.6-1.6v-.207a1.6,1.6,0,1,1,3.2,0v.207A1.6,1.6,0,0,1,29.8,264.787Z" fill="#fff"/>
    <path id="Path_1184" data-name="Path 1184" d="M14.9,271.617a1.6,1.6,0,0,1-1.6-1.6v-.206a1.6,1.6,0,1,1,3.2,0v.206A1.6,1.6,0,0,1,14.9,271.617Z" fill="#fff"/>
    <path id="Path_1185" data-name="Path 1185" d="M-33.56,297.489a1.6,1.6,0,0,1-1.474-1.723,8.978,8.978,0,0,1,2.62-4.9,10.356,10.356,0,0,1,5.17-3.2l.416-.082c2.442-.479,3.913-.767,5.265-4.936a10.061,10.061,0,0,1,5.522-6.354,9.17,9.17,0,0,1-1.616-6.765c.581-3.58,3.7-6.3,5.958-7.84-1.137-.686-2.208-1.4-3.2-2.132a9.267,9.267,0,0,1-4.532,1.809l-.4.078c-2.429.488-5.116,3.877-5.225,5.205a1.611,1.611,0,0,1-1.6,1.476l-.137,0a1.591,1.591,0,0,1-1.092-.56,1.6,1.6,0,0,1-.376-1.167,8.96,8.96,0,0,1,2.62-4.894,10.348,10.348,0,0,1,5.171-3.2l.415-.082a8.42,8.42,0,0,0,2.562-.771,27.508,27.508,0,0,1-4.424-5.07c-.042.057-.083.115-.126.174a17.871,17.871,0,0,1-5.769,5.179,8.519,8.519,0,0,1-3.888.943,9.3,9.3,0,0,1-4.679-1.31,10.831,10.831,0,0,1-1.512-1.069,6.817,6.817,0,0,0-4.369,4.646c-1.935,5.967-5,6.565-7.7,7.092l-.393.078c-2.432.488-5.118,3.876-5.225,5.2a1.609,1.609,0,0,1-1.6,1.478l-.139,0a1.606,1.606,0,0,1-1.468-1.727,8.97,8.97,0,0,1,2.621-4.893,10.351,10.351,0,0,1,5.169-3.2l.419-.08c2.44-.478,3.911-.766,5.262-4.935a10.022,10.022,0,0,1,5.194-6.2,9.034,9.034,0,0,1-1.356-6.373c.656-4.044,4.545-6.992,6.805-8.391a20.741,20.741,0,0,1,6.87-2.891c-.06-.537-.107-1.071-.142-1.6a6.968,6.968,0,0,1-3.751,1.094,6.993,6.993,0,0,1-6.983-6.985,6.991,6.991,0,0,1,6.983-6.983,6.936,6.936,0,0,1,4.781,1.891c.2-.753.416-1.5.659-2.236a6.956,6.956,0,0,1-5.179-6.747,6.992,6.992,0,0,1,6.984-6.983,6.969,6.969,0,0,1,4.873,1.982q.74-.859,1.535-1.673a7.013,7.013,0,0,1-5.319-6.78,6.992,6.992,0,0,1,6.984-6.984,6.993,6.993,0,0,1,6.984,6.984c0,.121,0,.242-.01.363A34.554,34.554,0,0,1,6.6,197.52H6.72c.6,0,1.208.016,1.819.048a6.984,6.984,0,0,1,13.132,3.313v.022c.817.392,1.617.811,2.388,1.254a6.983,6.983,0,1,1,8.564,6.974c.714.8,1.394,1.638,2.032,2.5A6.984,6.984,0,0,1,40.5,224.212a35.183,35.183,0,0,1,.214,15.1,6.984,6.984,0,0,1-5.525,12.813,34.526,34.526,0,0,1-3.561,4.32,6.986,6.986,0,1,1-8.816,6.743c0-.055,0-.11,0-.164a34.952,34.952,0,0,1-3.5,1.59,6.983,6.983,0,1,1-11.4,5.4,6.926,6.926,0,0,1,.73-3.108c-.63.035-1.252.053-1.86.053-.486,0-.941-.01-1.385-.027a19.131,19.131,0,0,1-3.625,7.778A17.892,17.892,0,0,1-4,279.891a8.531,8.531,0,0,1-3.889.942,9.3,9.3,0,0,1-4.678-1.31,10.774,10.774,0,0,1-1.016-.675,6.716,6.716,0,0,0-4.936,4.8c-1.933,5.966-5,6.564-7.7,7.091l-.392.079c-2.43.487-5.118,3.876-5.226,5.205a1.611,1.611,0,0,1-1.6,1.473h-.049ZM-1.8,261.245c-1.425,0-3.859.455-7.37,2.627-1.792,1.108-4.867,3.386-5.327,6.184-.481,2.921,1.436,5.47,3.549,6.7a6.2,6.2,0,0,0,3.071.879,5.256,5.256,0,0,0,2.418-.6,14.555,14.555,0,0,0,4.634-4.2c4.714-6.523,2.75-9.571,2.729-9.6a.886.886,0,0,1-.135-.21A4.429,4.429,0,0,0,.685,261.9l-.038-.026-.1-.09h0A4.371,4.371,0,0,0-1.8,261.245Zm16.693,4.99a3.78,3.78,0,1,0,3.779,3.78A3.785,3.785,0,0,0,14.9,266.235Zm14.9-6.83a3.779,3.779,0,1,0,3.779,3.78A3.784,3.784,0,0,0,29.8,259.4ZM5.419,263.724c.435.017.871.027,1.306.027a31.4,31.4,0,0,0,25.811-13.422,6.981,6.981,0,0,1,5.051-11.722,31.977,31.977,0,0,0-.138-13.383c-.205.018-.41.028-.614.028a6.982,6.982,0,0,1-4.918-11.94,31.67,31.67,0,0,0-11.023-9.228,6.984,6.984,0,0,1-13.191-3.2c0-.045,0-.09,0-.135q-.493-.017-.987-.016H6.613a31.118,31.118,0,0,0-24.392,11.689,6.982,6.982,0,0,1,.33,2.123,6.975,6.975,0,0,1-5.416,6.8A31.231,31.231,0,0,0-24.8,232.232a31.886,31.886,0,0,0,.217,3.711,6.451,6.451,0,0,1,3.442,1.3,7.391,7.391,0,0,1,1.88,2.037c.421.607,2.4,4.009-.768,10.077a23.209,23.209,0,0,0,4.592,5.633,14.674,14.674,0,0,0,.655-1.692,10.092,10.092,0,0,1,5.424-6.309,9.008,9.008,0,0,1-1.264-6.22c.655-4.04,4.544-6.991,6.8-8.391,3.333-2.062,6.379-3.108,9.057-3.108a6.911,6.911,0,0,1,4.462,1.35,7.437,7.437,0,0,1,1.88,2.037c.546.787,3.049,5.232-2.774,13.286a17.884,17.884,0,0,1-5.769,5.18,8.542,8.542,0,0,1-3.89.943,9.294,9.294,0,0,1-4.677-1.31,10.782,10.782,0,0,1-1.638-1.177,6.784,6.784,0,0,0-4.569,4.706,15.89,15.89,0,0,1-1.166,2.774,40.948,40.948,0,0,0,4.388,2.787A15.434,15.434,0,0,1-1.8,258.037a6.9,6.9,0,0,1,4.462,1.351,7.416,7.416,0,0,1,1.879,2.037A5.931,5.931,0,0,1,5.419,263.724ZM-25.6,239.1c-1.424,0-3.859.455-7.37,2.626-1.792,1.115-4.87,3.4-5.327,6.183-.48,2.922,1.437,5.472,3.549,6.7a6.185,6.185,0,0,0,3.071.879,5.268,5.268,0,0,0,2.418-.6,14.548,14.548,0,0,0,4.634-4.2c4.725-6.537,2.767-9.549,2.746-9.579a1.441,1.441,0,0,1-.162-.256,4.393,4.393,0,0,0-1.075-1.1l-.033-.024-.1-.087h0A4.323,4.323,0,0,0-25.6,239.1Zm63.265,2.714a3.779,3.779,0,1,0,3.779,3.779A3.783,3.783,0,0,0,37.663,241.812ZM5.24,232.474c-1.425,0-3.86.455-7.371,2.627-1.792,1.108-4.867,3.386-5.327,6.183-.48,2.923,1.437,5.472,3.549,6.7a6.189,6.189,0,0,0,3.072.879,5.268,5.268,0,0,0,2.418-.6,14.558,14.558,0,0,0,4.634-4.2c4.723-6.537,2.748-9.574,2.727-9.6a.853.853,0,0,1-.132-.207,4.469,4.469,0,0,0-1.087-1.124l-.132-.108h0A4.331,4.331,0,0,0,5.24,232.474Zm-36.919-7.636a3.783,3.783,0,0,0-3.779,3.779,3.784,3.784,0,0,0,3.779,3.78,3.785,3.785,0,0,0,3.781-3.78A3.784,3.784,0,0,0-31.679,224.838Zm68.514-10.35a3.779,3.779,0,1,0,.992,7.425,1.7,1.7,0,0,1,.313-.141,1.6,1.6,0,0,1,.24-.053,3.781,3.781,0,0,0-1.545-7.231Zm-61.269-3.725a3.783,3.783,0,0,0-3.779,3.779,3.783,3.783,0,0,0,3.779,3.779,3.784,3.784,0,0,0,3.78-3.779A3.784,3.784,0,0,0-24.434,210.763Zm55.473-12.212a3.779,3.779,0,1,0,3.779,3.779A3.783,3.783,0,0,0,31.039,198.551Zm-47.4-1.242a3.784,3.784,0,0,0-3.78,3.779,3.784,3.784,0,0,0,3.78,3.779,3.783,3.783,0,0,0,3.779-3.779A3.783,3.783,0,0,0-16.361,197.309Zm31.048-.207a3.779,3.779,0,1,0,3.78,3.779A3.784,3.784,0,0,0,14.687,197.1Z" fill="#fff"/>
    <path id="Path_1186" data-name="Path 1186" d="M37.663,247.192a1.6,1.6,0,0,1-1.6-1.6v-.207a1.6,1.6,0,1,1,3.2,0v.207A1.6,1.6,0,0,1,37.663,247.192Z" fill="#fff"/>
    <path id="Path_1187" data-name="Path 1187" d="M36.835,219.87a1.6,1.6,0,0,1-1.6-1.6v-.207a1.6,1.6,0,0,1,3.205,0v.207A1.6,1.6,0,0,1,36.835,219.87Z" fill="#fff"/>
    <path id="Path_1188" data-name="Path 1188" d="M31.039,203.933a1.6,1.6,0,0,1-1.6-1.6v-.207a1.6,1.6,0,0,1,3.2,0v.207A1.6,1.6,0,0,1,31.039,203.933Z" fill="#fff"/>
    <path id="Path_1189" data-name="Path 1189" d="M14.687,202.483a1.6,1.6,0,0,1-1.6-1.6v-.207a1.6,1.6,0,1,1,3.2,0v.207A1.6,1.6,0,0,1,14.687,202.483Z" fill="#fff"/>
    <path id="Path_1190" data-name="Path 1190" d="M.405,219.87a6.984,6.984,0,0,1,0-13.968,6.984,6.984,0,0,1,0,13.968Zm0-10.764a3.78,3.78,0,0,0,0,7.56,3.78,3.78,0,1,0,0-7.56Z" fill="#fff"/>
    <path id="Path_1191" data-name="Path 1191" d="M.405,214.488a1.6,1.6,0,0,1-1.6-1.6v-.207a1.6,1.6,0,0,1,1.6-1.6,1.6,1.6,0,0,1,1.6,1.6v.207A1.6,1.6,0,0,1,.405,214.488Z" fill="#fff"/>
    <path id="Path_1192" data-name="Path 1192" d="M25.657,239.327a6.984,6.984,0,1,1,6.985-6.984A6.992,6.992,0,0,1,25.657,239.327Zm0-10.763a3.78,3.78,0,1,0,3.78,3.779A3.783,3.783,0,0,0,25.657,228.564Z" fill="#fff"/>
    <path id="Path_1193" data-name="Path 1193" d="M25.657,233.945a1.6,1.6,0,0,1-1.6-1.6v-.207a1.6,1.6,0,1,1,3.2,0v.207A1.6,1.6,0,0,1,25.657,233.945Z" fill="#fff"/>
    <path id="Path_1194" data-name="Path 1194" d="M20.069,259.819a6.984,6.984,0,1,1,6.984-6.984A6.993,6.993,0,0,1,20.069,259.819Zm0-10.763a3.779,3.779,0,1,0,3.78,3.779A3.783,3.783,0,0,0,20.069,249.056Z" fill="#fff"/>
    <path id="Path_1195" data-name="Path 1195" d="M20.069,254.438a1.6,1.6,0,0,1-1.6-1.6v-.207a1.6,1.6,0,1,1,3.2,0v.207A1.6,1.6,0,0,1,20.069,254.438Z" fill="#fff"/>
    <path id="Path_1196" data-name="Path 1196" d="M-16.361,202.69a1.6,1.6,0,0,1-1.6-1.6v-.207a1.6,1.6,0,0,1,1.6-1.6,1.6,1.6,0,0,1,1.6,1.6v.207A1.6,1.6,0,0,1-16.361,202.69Z" fill="#fff"/>
    <path id="Path_1197" data-name="Path 1197" d="M-24.434,216.145a1.6,1.6,0,0,1-1.6-1.6v-.207a1.6,1.6,0,0,1,1.6-1.6,1.6,1.6,0,0,1,1.6,1.6v.207A1.6,1.6,0,0,1-24.434,216.145Z" fill="#fff"/>
    <path id="Path_1198" data-name="Path 1198" d="M-31.679,230.22a1.6,1.6,0,0,1-1.6-1.6v-.207a1.6,1.6,0,0,1,1.6-1.6,1.6,1.6,0,0,1,1.6,1.6v.207A1.6,1.6,0,0,1-31.679,230.22Z" fill="#fff"/>
    <path id="Path_1199" data-name="Path 1199" d="M-31.892,276.093a1.607,1.607,0,0,1-1.6-1.6,1.6,1.6,0,0,1,.694-1.321l.145-.1a1.587,1.587,0,0,1,.931-.3,1.606,1.606,0,0,1,1.3.666,1.6,1.6,0,0,1-.365,2.236l-.191.135a1.616,1.616,0,0,1-.654.262l-.02.021Z" fill="#fff"/>
    <path id="Path_1200" data-name="Path 1200" d="M-35.945,277.541a1.607,1.607,0,0,1-1.6-1.6,1.6,1.6,0,0,1,1.227-1.558l.207-.05a1.532,1.532,0,0,1,.4-.053,1.6,1.6,0,0,1,1.544,1.183,1.591,1.591,0,0,1-.155,1.216,1.593,1.593,0,0,1-.971.749l-.279.068a1.758,1.758,0,0,1-.37.044h-.007Z" fill="#fff"/>
    <path id="Path_1201" data-name="Path 1201" d="M-28.863,273a1.6,1.6,0,0,1-1.6-1.6,1.585,1.585,0,0,1,.268-.884l.066-.1a1.62,1.62,0,0,1,1.383-.789,1.6,1.6,0,0,1,.855.248,1.6,1.6,0,0,1,.5,2.211c-.035.06-.084.137-.137.212a1.583,1.583,0,0,1-.182.225L-27,273Z" fill="#fff"/>
    <path id="Path_1202" data-name="Path 1202" d="M-43.758,287.291a1.606,1.606,0,0,1-1.6-1.6,1.608,1.608,0,0,1,.532-1.2l.114-.105a1.587,1.587,0,0,1,1.135-.471,1.59,1.59,0,0,1,1.124.461,1.586,1.586,0,0,1,.477,1.127,1.59,1.59,0,0,1-.459,1.137l-.241.225a1.6,1.6,0,0,1-1.076.421Z" fill="#fff"/>
    <path id="Path_1203" data-name="Path 1203" d="M-47.6,289.212a1.606,1.606,0,0,1-1.591-1.613,1.614,1.614,0,0,1,1.376-1.576l.107-.02a1.534,1.534,0,0,1,.314-.031,1.608,1.608,0,0,1,1.569,1.282,1.6,1.6,0,0,1-1.249,1.89c-.21.043-.327.056-.327.056a1.621,1.621,0,0,1-.195.012Z" fill="#fff"/>
    <path id="Path_1204" data-name="Path 1204" d="M-35.948,277.541v-1.135l.006,1.135Z" fill="#fff"/>
    <path id="Path_1205" data-name="Path 1205" d="M-41.388,283.7a1.648,1.648,0,0,1-.544-.094,1.607,1.607,0,0,1-1-1.948l.1-.276a1.591,1.591,0,0,1,1.523-1.107,1.616,1.616,0,0,1,.482.075,1.593,1.593,0,0,1,.939.789,1.592,1.592,0,0,1,.107,1.221c-.056.162-.084.239-.114.31a1.594,1.594,0,0,1-1.484,1.03h0Z" fill="#fff"/>
    <path id="Path_1206" data-name="Path 1206" d="M-39.544,279.789a1.6,1.6,0,0,1-1.6-1.6,1.615,1.615,0,0,1,.32-.961l.167-.21a1.585,1.585,0,0,1,1.245-.6,1.6,1.6,0,0,1,1,.349,1.585,1.585,0,0,1,.595,1.073,1.593,1.593,0,0,1-.339,1.178l-.1.13A1.619,1.619,0,0,1-39.544,279.789Z" fill="#fff"/>
  </g>
</svg>
