<svg xmlns="http://www.w3.org/2000/svg" xmlns:xlink="http://www.w3.org/1999/xlink" width="140" height="218" viewBox="0 0 140 218">
    <defs>
        <path id="prefix__a" d="M137 245.002c62 .243 122-54.623 122-122.002 0-48.08-31.586-84.123-72-104-16.222-7.979-9-20.5-50-18S88 3 72 20c-7.138 7.584-12.31-6.025-20-1-15.984 10.445-28.5 22.5-32 44s1 52-14 59 7.46 46.528 15 68.5c5.442 15.856 8.255 31.016 21 40.5 6.54 4.866 33.963 1.369 43 3.5 23.215 5.475 32.62 10.424 52 10.502z"/>
    </defs>
    <g fill="none" fill-rule="evenodd" opacity=".099" transform="rotate(180 75 120.5)">
        <mask id="prefix__b" fill="#fff">
            <use xlink:href="#prefix__a"/>
        </mask>
        <g fill="#3E8373" mask="url(#prefix__b)">
            <g>
                <path d="M155.495 133.296c.591.405 1.165.62 1.709.684 5.03.584 7.63-11.845 0-8.364-.382.175-.79.388-1.225.646-3.737 2.219-4.025 6.56-.484 7.034M156.481 49.968c.726-.107 1.406-.485 1.981-1.222 1.069.736 3.679-2.85-1.981-5.953-.67-.368-1.456-.73-2.375-1.076-10.24-3.837-2.76 9.007 2.375 8.25M126.5 130.864c1.964-3.226-9.402-2.336-5.784 3.227 3.666 5.648 10.252-3.015 5.784-3.227M142.695 142.135c7.052-3.192 3.92-5.786 1.262-6.719-8.473-2.976-4.126 11.14-1.262 6.719M121.123 146.954c-.243.301-.442.634-.603.986-1.039 2.27-.433 5.332 1.032 5.718 5.965 1.575 7.183-2.631 6.085-5.718-.954-2.684-3.657-4.523-6.514-.986M151.376 109.127c.184 1.078 3.54 3.378 5.375.42.153-.247.296-.53.425-.855.854-2.14 1.343-4.203-.058-5.507-.123-.115-.245-.218-.367-.314-4.902-3.876-8.983 6.455-5.375 6.256M132.558 105.498c1.478 1.226 9.852.63 6.764-6.654-2.902-6.848-14.359 7.658-6.764 6.654M140.22 78.163c.751 7.287 8.445 5.814 7.734-.907-.672-6.347-9.44-1.95-7.735.907M107.036 97.023c-9.175-.603-3.775 10.95.238 8.681 2.32.66 7.197-8.2-.238-8.681M149.958 89.454c-3.001-1.996-9.354 3.024-3.683 6.585-.973 3.204 10.174-2.273 3.683-6.585M115.862 140.823c-2.372-2.396-11.13.783-6.563 5.121-2.326 2.66 11.694.055 6.563-5.121M109.663 59.997c3.426 3.117 11.176-1.726 7.257-5.046-4.248-3.595-12.436 4.094-7.257 5.046M128.157 40.39c-1.443-1.59-3.803-2.084-5.987-.04-1.97 1.844-3.895 6.17.475 7.346 6.981 1.882 7.126-5.522 5.512-7.305M109.65 127.844c6.988-8.397 1.08-8.956-.215-8.83-10.28.992.582 13.842.214 8.83M138.299 117.114c-8.896 2.345 3.16 12.152 1.878 7.775 4.571-8.421-.758-8.07-1.878-7.775M122.119 83.294c-2.756 1.272-3.58 5.082-2.886 5.77.208 1.608 2.42 2.655 4.057 2.889 6.217.885 3.784-10.947-1.171-8.659M126.872 74.946c1.62 1.316 6.697 2.185 6.076-2.366-.319-2.325-1.59-5.65-4.348-5.579-5.583.15-3.435 9.083-1.728 7.945M138.125 54.686c-2.961-1.407-5.268-.335-6.183.434-1.152.967-.99 2.994-.828 3.441 2.255 6.194 14.655 3.063 9.746-1.864-.784-.788-1.701-1.52-2.735-2.011M124.726 109.086c-2.239-12.009-13.006 6.182-4.508 7.148-.142 1.413 6.152 1.775 4.508-7.148M111.164 73.35c.506 2.227 2.076 3.746 2.716 4.105.693 1.767 5.853-1.009 3.518-4.768-3.898-6.28-7.18-3.5-6.234.664M156.535 60.032c-3.765-.362-10.139 2.402-6.399 4.471.133 1.237 3.601 3.745 6.399 1.755.83-.59 1.6-1.576 2.208-3.109.81-2.045-.398-2.942-2.208-3.117M194.834 56.676c3.53 3.182 5.717-9.67-2.417-7.407-8.256 2.289.841 12.283 2.417 7.407M215.702 91.4c7.634-1.528 5.417-4.843 3.164-6.393-7.181-4.944-7.18 10.123-3.164 6.392M197.123 75.52c-1.81 1.746-1.261 4.867.43 5.214 11.148 2.29 5.714-11.13-.43-5.214M204.465 93.008c-6.65-.322-9.316 9.453-2.424 8.975.688-.047.971-.617.842-1.056.152-.074 5.74-7.72 1.582-7.92M222.553 107.2c.72 1.014 5.708 1.867 5.436-2.752-.137-2.35-.594-4.48-2.544-5.136-7.044-2.369-6.391 9.575-2.892 7.889M214.797 73.033c-.354 1.059 2.065 4.777 5.544 1.892 1.771-1.467 3.17-3.012 2.479-4.654-2.497-5.935-11.525 1.493-8.023 2.762M203.005 118.093c.05 1.83 1.12 3.701 3.896 3.87 15.864.967-4.276-17.634-3.896-3.87M194.62 147.518c1.012 2.006 3.35 3.562 7.622 1.528.909-.432 1.425-.956 1.64-1.528 1.463-3.9-11.15-9.998-9.525-3.999-.511.647-.515 2.456.263 3.999M238.771 69.752c2.966 5.761 7.493-10.473.621-7.349-8.132 3.697-2.912 8.79-.621 7.35M237.94 46.296c4.923 4.333 8.192-12.997.377-7.033-2.907 2.218-3.13 6.56-.376 7.033M176.759 131.552c-5.98-3.131-10.969 8.087-5.213 7.854 4.921 2.783 10.732-4.96 5.213-7.854M171.83 61.696c2.1 1.218 13.903-2.387 4.712-5.907-10.308-3.937-8.115 8.26-4.711 5.907M234.755 147c6.692-.007 3.974-7.045 1.909-8.317-1.845-1.134-4.052-.998-5.135 1.494-.977 2.247-.963 6.829 3.226 6.823M187.448 110.393c6.942-3.437 2.005-8.315-.52-8.39-2.256-.066-4.505 1.187-4.88 3.963-.337 2.504 1.055 6.58 5.4 4.427M238.25 98.18c-2.607 12.774 16.405-3.72 2.789-5.165-2.953-.31-3.162 4.361-2.79 5.165M199.11 40.46c-.714 3.78 2.242 6.28 3.169 5.342.817.386 5.647-.514 5.72-4.996.103-6.339-8.283-3.544-8.889-.346M218.82 45.235c10.762-3.626 6.535-6.996 5.45-7.526-8.602-4.213-8.353 11.918-5.45 7.526M169.491 72.04c-6.575 6.644 10.968 10.097 6.885 6.531-1.416-10.335-6.057-7.368-6.885-6.53M205.57 61.1c3.542 3.752 12.47 1.566 8.379-3.24-3.931-4.611-11.002.464-8.38 3.24M224.466 54.463c-1.665 2.124-2.18 7.896-.113 6.942 11.894 3.965 5.197-13.423.113-6.942M159.176 88.933c.663 2.3 4.584 5.455 4.985 3.404 9.176-7.283-7.005-10.422-4.985-3.404M234.687 132.591c1.514 2.205 7.233 4.734 7.082 2.605 8.828-8.834-11.703-9.332-7.082-2.605M220.506 141.351c2.297.463 3.08-9.439-6.221-8.252-6.333.807 2.071 14.556 6.221 8.252M232.517 83.218c-2.085 4.825 2.822 5.571 2.63 5.571 12.447 2.352 1.855-15.965-2.63-5.57M175.383 44.93c3.104 3.797 5.957 1.185 5.87 1.303 7.621-6.386-12.562-9.478-5.87-1.303M244.882 116.308c1.29 2.221 5.447 1.703 6.078 1.464 13.577-5.151-11.906-11.497-6.078-1.464M190.294 116.154c-1.05-.173-2.156-.226-3.195-.023-2.972.582-3.92 2.747-4.08 3.876-.2 1.421 1.192 2.928 1.589 3.188 5.494 3.597 12.25-5.96 5.686-7.04M201.94 129.424c-2.25-5.086-6.91-1.241-5.76 3.052.371 1.384 1.541 2.397 3.11 2.499-.318 1.502 6.196 2.49 2.65-5.551M227.846 114.256c-5.426-1.272-6.1 2.324-2.997 8.026 1.891 3.476 8.524-6.731 2.997-8.026M166.202 112.993c-.183 1.056-.74 5.243 1.41 5.706 14.1 3.039.777-18.248-1.41-5.706M180.737 70.319c-1.392.242-1.232 3.352 4.229 2.549 15.74-2.317-4.294-12.575-4.23-2.55M185.989 89.203c-.58-7.133-6.14-6.054-7.657-2.006-.812 2.165.056 4.15.573 4.73-.306 1.84 7.432 1.546 7.084-2.724M138.934 184.852c5.84-4.713 2.047-6.508-.794-6.802-9.056-.939-.644 11.746.794 6.802M150.41 172.222c.117-.117 2.161-8.463-2.117-7.064-6.843 2.234-4.95 11.222 1.763 8.243.67-.296.688-.868.353-1.179M157.75 261.548c.154-.248.297-.531.426-.855.854-2.141 1.343-4.204-.058-5.509-.123-.114-.245-.217-.367-.313-4.902-3.876-8.983 6.455-5.375 6.256.184 1.078 3.54 3.378 5.375.42M139.322 249.844c-2.902-6.848-14.359 7.658-6.764 6.654 1.478 1.226 9.852.63 6.764-6.654M147.954 227.256c-.672-6.348-9.44-1.95-7.735.907.752 7.287 8.446 5.814 7.735-.907M117.934 161.266c4.167-2.365 1.51-6.43-3.343-8.034-3.092-1.023-7.092 1.361-2.533 6.606 2.617 3.004 5.945 2.254 5.876 1.428M108.274 256.704c2.32.66 7.197-8.2-.238-8.681-9.175-.603-3.775 10.95.238 8.681M148.958 239.454c-3.001-1.996-9.354 3.024-3.683 6.585-.973 3.204 10.174-2.273 3.683-6.585M108.663 210.997c3.426 3.117 11.176-1.726 7.257-5.046-4.248-3.595-12.436 4.094-7.257 5.046M121.645 197.696c6.981 1.882 7.126-5.522 5.512-7.305-1.443-1.59-3.803-2.085-5.987-.04-1.97 1.843-3.895 6.168.475 7.345M130.039 166.46c.103 1.086.61 2.734 2.003 2.79.06 1.932 5.681-.128 5.936-3.212.532-6.45-8.647-7.123-7.94.422M149.561 152.54c-.817-2.558-5.098-1.284-5.683-.725-12.464 1.787 9.435 12.529 5.683.725M120.968 179.04c1.809.97 4.709-7.877-3.31-9.01-5.46-.772-1.579 13.772 3.31 9.01M123.29 242.953c6.217.885 3.784-10.947-1.171-8.659-2.756 1.272-3.58 5.082-2.886 5.77.208 1.608 2.42 2.655 4.057 2.889M132.948 221.58c-.319-2.325-1.59-5.65-4.348-5.579-5.583.15-3.435 9.083-1.728 7.945 1.62 1.316 6.697 2.185 6.076-2.366M140.86 206.697c-.784-.788-1.7-1.52-2.735-2.012-2.961-1.406-5.268-.334-6.183.435-1.152.967-.99 2.994-.828 3.44 2.255 6.195 14.655 3.064 9.746-1.863M124.726 259.085c-2.239-12.008-13.006 6.183-4.508 7.149-.142 1.413 6.152 1.775 4.508-7.149M118.398 221.687c-3.898-6.28-7.18-3.5-6.234.664.506 2.226 2.076 3.745 2.716 4.104.693 1.767 5.853-1.009 3.518-4.768M156.535 211.032c-3.765-.362-10.139 2.402-6.399 4.471.133 1.237 3.601 3.745 6.399 1.755.83-.59 1.6-1.576 2.208-3.109.81-2.045-.398-2.942-2.208-3.117M191.417 199.27c-8.256 2.288.84 12.282 2.417 7.406 3.53 3.182 5.718-9.67-2.417-7.407M216.702 241.4c7.634-1.528 5.417-4.843 3.164-6.393-7.181-4.944-7.18 10.123-3.164 6.392M197.552 230.734c11.149 2.29 5.715-11.13-.429-5.214-1.81 1.746-1.261 4.867.43 5.214M204.465 243.008c-6.65-.322-9.316 9.453-2.424 8.975.688-.047.971-.617.842-1.056.152-.074 5.74-7.721 1.582-7.92M228.99 254.448c-.138-2.35-.595-4.48-2.545-5.136-7.044-2.369-6.391 9.575-2.892 7.889.72 1.013 5.708 1.866 5.436-2.753M222.82 220.27c-2.497-5.934-11.525 1.494-8.023 2.763-.354 1.06 2.065 4.777 5.544 1.892 1.771-1.467 3.17-3.012 2.479-4.654M160.28 168.48c1.783.442 8.223-3.028 2.203-7.695-5.658-4.388-7.817 11.209-2.203 7.695M166.249 186.396c4.79-1.988 2.8-6.133-1.948-8.051-3.026-1.223-7.647.796-3.899 6.228 2.152 3.113 5.76 2.63 5.847 1.823M189.643 182.092c-.072 1.31 4.727 1.264 6.593-.539 1.97-1.905-.225-6.719-2.576-7.395-1.888-.544-5.118-.033-4.606 7.266.025.358.283.581.59.668M210.466 178.426c.935 1.985 9.503-1.418 5.453-6.574-4.993-6.37-9.268 5.661-5.453 6.574M201.936 166.757c1.789-.489 1.365-6.093-1.6-7.757h-3.863c-.196.084-.397.179-.602.287-8.396 4.42 4.102 11.619 6.065 7.47M237.771 219.752c2.966 5.761 7.493-10.473.621-7.349-8.132 3.697-2.912 8.79-.621 7.35M209.102 158.766c-.253 1.338-.155 3.533 1.705 3.698.097.29.362.531.798.535 16.867.172-.056-17.096-2.503-4.233M248.411 165.77c.434 5.798 11.41-10.92 1.371-8.536-5.954 1.416-3.649 9.08-1.371 8.536M238.317 188.263c-2.907 2.218-3.13 6.56-.376 7.033 4.922 4.333 8.19-12.997.376-7.033M185.549 154.909c-2.74-4.805-12.909.688-8.421 3.083 2.137 4.095 10.947 1.353 8.42-3.083M176.542 206.789c-10.308-3.937-8.115 8.26-4.711 5.907 2.1 1.218 13.902-2.387 4.711-5.907M186.448 260.393c6.942-3.437 2.005-8.315-.52-8.39-2.256-.066-4.505 1.187-4.88 3.963-.337 2.504 1.055 6.58 5.4 4.427M241.039 243.015c-2.953-.31-3.162 4.361-2.79 5.165-2.606 12.774 16.406-3.72 2.79-5.165M199.11 190.46c-.714 3.78 2.242 6.28 3.169 5.342.817.386 5.647-.514 5.72-4.996.103-6.339-8.283-3.544-8.889-.346M225.27 187.709c-8.602-4.213-8.353 11.918-5.45 7.526 10.762-3.626 6.535-6.996 5.45-7.526M176.376 228.571c-1.416-10.335-6.057-7.368-6.885-6.53-6.575 6.643 10.968 10.096 6.885 6.53M226.56 149.914c-6.458 6.217 9.453 10.384 5.922 6.707-.66-10.193-5.11-7.491-5.923-6.707M213.948 207.86c-3.93-4.612-11.001.465-8.379 3.24 3.543 3.752 12.472 1.566 8.38-3.24M224.353 211.405c11.894 3.965 5.197-13.424.113-6.942-1.665 2.124-2.18 7.896-.113 6.942M159.176 239.933c.663 2.3 4.584 5.455 4.985 3.404 9.176-7.282-7.005-10.422-4.985-3.404M234.927 174.63c1.222-5.455-13.414-1.478-9.143 3.368-1.107 1.812 7.35 4.643 9.143-3.369M231.517 232.218c-2.085 4.825 2.822 5.571 2.63 5.571 12.447 2.352 1.855-15.965-2.63-5.57M180.252 196.233c7.622-6.386-12.561-9.478-5.87-1.303 3.105 3.797 5.958 1.185 5.87 1.303M174.593 172.241c1.84 4.129 5.117 2.374 5.007 2.463 8.598-4.148-8.977-11.354-5.007-2.463M170.328 151.771c3.243-1.353 4.034-2.789 3.535-3.988-1.213-2.912-10.03-4.432-9.86 0 .026.691.27 1.527.798 2.525 1.173 2.222 4.953 1.703 5.527 1.463M156.481 193.793c-.67-.368-1.456-.73-2.375-1.076-10.24-3.837-2.76 9.007 2.375 8.25.726-.106 1.406-.484 1.981-1.221 1.069.736 3.679-2.849-1.981-5.953M184.965 223.868c15.74-2.317-4.293-12.575-4.228-2.55-1.392.243-1.232 3.353 4.228 2.55M186.989 240.203c-.58-7.133-6.14-6.054-7.657-2.006-.812 2.165.056 4.15.573 4.731-.306 1.84 7.432 1.545 7.084-2.725" transform="translate(-98 -17)"/>
            </g>
        </g>
    </g>
</svg>