<svg xmlns="http://www.w3.org/2000/svg" width="83.243" height="100" viewBox="0 0 83.243 100">
  <g id="Group_1259" data-name="Group 1259" transform="translate(47.038 -97.733)">
    <path id="Path_1178" data-name="Path 1178" d="M30.574,197.733a1.714,1.714,0,0,1-1.689-1.417l-2.691-15.2c-.868-3.019-2.31-4.834-4.519-5.625L5.164,169.563a1.717,1.717,0,0,1-3.309-.645v-8.235A17.248,17.248,0,0,1-5.417,162.3a17.2,17.2,0,0,1-7.488-1.725v8.344a1.72,1.72,0,0,1-1.717,1.718,1.719,1.719,0,0,1-1.591-1.073l-16.513,5.923c-2.209.791-3.65,2.605-4.536,5.708l-2.673,15.122a1.714,1.714,0,0,1-1.69,1.417,1.715,1.715,0,0,1-1.316-.614,1.716,1.716,0,0,1-.376-1.4l1.985-11.192h-2.134a3.577,3.577,0,0,1-3.572-3.573V164.269c0-24.97,12.567-46.729,30.659-53.271a10.191,10.191,0,0,1-.307-2.462,11.056,11.056,0,0,1,11.268-10.8,11.061,11.061,0,0,1,11.277,10.8A10.2,10.2,0,0,1,5.55,111c18.088,6.543,30.655,28.3,30.655,53.27v16.683a3.577,3.577,0,0,1-3.572,3.573h-2.35l1.983,11.192a1.718,1.718,0,0,1-1.692,2.017Zm2.059-16.644a.139.139,0,0,0,.138-.138V164.269c0-17.4-6.313-33.259-16.769-42.841a19.853,19.853,0,0,1,2.249,9.132c.02,7.76,0,8.085,0,8.191a1.78,1.78,0,0,1-1.569,1.613c-.246.021-.49.039-.733.055-.416,3.682-1.888,6.071-4.205,6.832a17.356,17.356,0,0,1-6.452,11.307v7.4l17.548,6.293c3.351,1.2,5.477,3.76,6.692,8.048l.03.126.117.663Zm-59.467-59.662C-37.29,131.01-43.6,146.871-43.6,164.269v16.683a.137.137,0,0,0,.138.138h2.743l.126-.708c1.233-4.368,3.36-6.926,6.711-8.129l17.547-6.293v-7.574a17.39,17.39,0,0,1-6.234-11.138,4.967,4.967,0,0,1-2.225-1.492c-1.821-2.09-2.139-5.565-2.11-7.962-.132.018-.307.038-.307.038l-.144.006a1.724,1.724,0,0,1-1.721-1.611c-.018-.3-.014-1.836-.006-4.762l0-.909A19.832,19.832,0,0,1-26.834,121.428Zm7.544,23.562A13.89,13.89,0,0,0-5.417,158.864,13.89,13.89,0,0,0,8.457,144.989v-5.009A27.986,27.986,0,0,1-8.6,129.134c-2.2,3.554-6.821,5.7-10.694,6.942Zm-4.168-7.807a13.685,13.685,0,0,0,.734,5.485v-5.65Q-23.1,137.1-23.459,137.182Zm35.35,5.474a8.122,8.122,0,0,0,.592-2.212q-.3-.015-.592-.033Zm-23.148-23.174a1.723,1.723,0,0,1,1.614,1.128c.245.671,6.2,16.429,23.486,16.429.323,0,.651,0,.983-.017,0-1.894-.006-5.042-.01-6.461,0-9.969-9.076-18.077-20.233-18.077s-20.232,8.108-20.232,18.075c0,0-.009,2.629-.01,3.552,6.7-1.221,13.777-3.985,14.789-8.334a27.479,27.479,0,0,1-2-3.993,1.72,1.72,0,0,1,1.026-2.2A1.7,1.7,0,0,1-11.256,119.482Zm5.839-10.431a32.975,32.975,0,0,1,7.68.943,6.755,6.755,0,0,0,.161-1.457,7.626,7.626,0,0,0-7.843-7.369,7.62,7.62,0,0,0-7.834,7.369,6.753,6.753,0,0,0,.161,1.456A32.914,32.914,0,0,1-5.417,109.051Z" fill="#fff"/>
    <path id="Path_1179" data-name="Path 1179" d="M18.483,199.868a1.719,1.719,0,0,1-1.716-1.717c0-4.066-4.5-7.373-10.033-7.373S-3.3,194.085-3.3,198.151a1.719,1.719,0,0,1-1.717,1.717,1.719,1.719,0,0,1-1.717-1.717c0-4.066-4.5-7.373-10.032-7.373S-26.8,194.085-26.8,198.151a1.719,1.719,0,0,1-1.717,1.717,1.719,1.719,0,0,1-1.717-1.717c0-5.96,6.041-10.806,13.466-10.806,4.946,0,9.393,2.133,11.749,5.536,2.357-3.4,6.8-5.536,11.75-5.536,7.426,0,13.467,4.847,13.467,10.806A1.72,1.72,0,0,1,18.483,199.868Z" transform="translate(-0.4 -2.135)" fill="#fff"/>
  </g>
</svg>
