<svg xmlns="http://www.w3.org/2000/svg" width="118.354" height="48.868" viewBox="0 0 118.354 48.868">
  <g id="Group_299" data-name="Group 299" transform="translate(-1045.552 -641.311)">
    <path id="Path_1097" data-name="Path 1097" d="M-44.242-18.3a4.083,4.083,0,0,1,1.716-.308,3.3,3.3,0,0,1,1.364.176,1.44,1.44,0,0,1,.352-.088q.528,0,1.364.88a5.35,5.35,0,0,1,1.056,1.408q0,3.212-.528,3.212-.22,0-.22.264,0,.616-1.078,1.364a3.537,3.537,0,0,1-1.958.748,2.315,2.315,0,0,1-.968-.594,1.325,1.325,0,0,1-.484-.946,14.032,14.032,0,0,1,.9-1.1,3.087,3.087,0,0,0,.9-1.892q0-.352-.748-.352a13.755,13.755,0,0,0-3.476,2.068q-.264.528-.528.528,0-.044-.066-.044a2.141,2.141,0,0,0-.506.44,6.869,6.869,0,0,0-.9,1.166,3.5,3.5,0,0,0-.55,1.3l-.088.132v.22a.915.915,0,0,0-.044.352q0,.7,1.87,2.09a25.683,25.683,0,0,1,2.6,2.112,3.415,3.415,0,0,1,.9,1.3,3.221,3.221,0,0,1,.4,1.408,2.523,2.523,0,0,1-1.562,2.31A7.948,7.948,0,0,1-48.246.66a7.291,7.291,0,0,1-3.74-.924q-1.584-.924-1.606-1.606t.462-.814A1.41,1.41,0,0,1-51.9-2.86q.924.176,2.288.352a7.393,7.393,0,0,0,1.65-.176q.77-.176.77-.352t-.352-.484a1.12,1.12,0,0,0-.748-.308A7.764,7.764,0,0,0-50.028-5.3Q-51.766-6.6-51.766-7a.127.127,0,0,1,.044-.088V-7.3q-.308,0-.572-.836a5.392,5.392,0,0,1-.264-1.628q0-2.288,2.75-4.994A13.626,13.626,0,0,1-44.242-18.3Zm14.96,4.048a3.077,3.077,0,0,0-1.65.946,10.267,10.267,0,0,0-1.87,2.178q.088.528,1.452.528a4.625,4.625,0,0,0,1.738-.2,7.066,7.066,0,0,0,1.276-1.1,3.218,3.218,0,0,0,.946-1.254q0-.968-1.408-1.1Zm.308-3.212a5.007,5.007,0,0,1,3.784,1.254A3.578,3.578,0,0,1-24-13.86v.352a7.382,7.382,0,0,1-1.232,3.036,5.832,5.832,0,0,1-1.892,1.958,4.857,4.857,0,0,1-2.552.9,12.076,12.076,0,0,1-2.442-.154,12.938,12.938,0,0,0-1.43-.2.61.61,0,0,0-.484.308,3.662,3.662,0,0,0-.308,1.8,2.6,2.6,0,0,0,.682,1.716,1.96,1.96,0,0,0,1.342.484,3.691,3.691,0,0,0,1.5-.308,7.256,7.256,0,0,0,1.65-1.1A2.732,2.732,0,0,1-27.7-5.852a1.521,1.521,0,0,1,1.056.528,1.718,1.718,0,0,1,.572,1.012Q-26.2-3.3-28.116-1.65A6.459,6.459,0,0,1-32.45,0a5.641,5.641,0,0,1-3.96-1.408,5.151,5.151,0,0,1-1.54-4q0-1.012.11-2.156a10.8,10.8,0,0,1,.77-2.816,15.865,15.865,0,0,1,2.112-3.608A8.416,8.416,0,0,1-31.834-16.7,7.09,7.09,0,0,1-28.974-17.468Zm9.592,11.924-.088.66a.931.931,0,0,0,.572.836,1.807,1.807,0,0,0,.88.286,3.635,3.635,0,0,0,1.056-.374,8.514,8.514,0,0,0,1.672-1.1,11.915,11.915,0,0,1,1.166-.88q.242-.132.44-.264A1.976,1.976,0,0,0-13.4-6.6q.264-.264.4-.132,0,.44.352.066A.881.881,0,0,1-11.9-7a2,2,0,0,1,.726.22q.33.176.33.308a.67.67,0,0,0,.176.66,1.266,1.266,0,0,1-.4.924l-1.76,2.332q-.22-.044-.77.484a1.562,1.562,0,0,1-1.034.528.981.981,0,0,1-.352.132q-.264.132-.264.308-.748.748-3.96.748a4.658,4.658,0,0,1-1.936-.22,8.934,8.934,0,0,1-.748-.616,6.433,6.433,0,0,0-1.232-1.628,6.789,6.789,0,0,1,.044-2.992,19.453,19.453,0,0,1,1.408-4.708,6.81,6.81,0,0,1,1.122-1.914,15.155,15.155,0,0,1,1.782-2.222,5.935,5.935,0,0,1,2.486-1.474,8.611,8.611,0,0,1,2.4-.594,2.935,2.935,0,0,1,2.508,1.188,3.657,3.657,0,0,1,.99,1.826,4.753,4.753,0,0,1-.022,2.178A2.3,2.3,0,0,1-11.88-9.922a1.661,1.661,0,0,1-2.046-.418,2.569,2.569,0,0,1,.066-1.716q.33-1.188-.242-1.188a1.314,1.314,0,0,0-.88.264,13.574,13.574,0,0,0-3.7,5.148ZM1.342-10.912l-.748.22a.952.952,0,0,1-.484-.22l-.7-.88-.748.748A7.959,7.959,0,0,0-3.036-8.316a10.379,10.379,0,0,0-.77,2.728q-.088,1.012.154,1.254a.915.915,0,0,0,.616.264,3.7,3.7,0,0,0,1.43-.506,2.758,2.758,0,0,1,.792-.638.793.793,0,0,0,.264-.11,1.1,1.1,0,0,0,.132-.2A3.027,3.027,0,0,0-.242-5.9,8.171,8.171,0,0,1,.9-7.612,6.014,6.014,0,0,0,2.024-9.174a1.71,1.71,0,0,0,.154-.99q-.088-.4-.2-.462a1.6,1.6,0,0,0-.308-.132A1.385,1.385,0,0,1,1.342-10.912Zm4-3.652a1.648,1.648,0,0,1,1.078,0q.726.176.726.44a1.576,1.576,0,0,0,.154.616q.154.352.286.352.44.044.088.7a3.168,3.168,0,0,1-.968,1.1,4.424,4.424,0,0,0-1.144.858.908.908,0,0,0,.044.462q.572,1.364-.77,3.608A14.778,14.778,0,0,1,1.188-2.376,8.778,8.778,0,0,1-3.058-.352Q-4.07,0-5.39-1.188A4.4,4.4,0,0,1-7.15-2.816a2.954,2.954,0,0,1-.66-1.8,17.891,17.891,0,0,1,2.354-7.018A10.754,10.754,0,0,1-.77-16.5a3.439,3.439,0,0,1,1.892-.264,1.632,1.632,0,0,1,1.364.836q.66,1.276-.308,1.628-.484,0-.484.4a4.983,4.983,0,0,0,1.8-.088A3.8,3.8,0,0,0,5.346-14.564Zm7.876,7.128q.044,0,1.892-1.848,3.476-3.476,5.368-3.564A2.129,2.129,0,0,1,22.2-11.836a3.958,3.958,0,0,1,.748,2.42q0,.264-.088,1.5v2.508q.66-.176,1.32-.4a11.42,11.42,0,0,1,2.508-.572A6.955,6.955,0,0,1,25.08-3.234Q23.606-1.32,22.242-1.32a2.754,2.754,0,0,1-2.42-1.848,8.7,8.7,0,0,1-.528-2.9V-8.008q0-.484-.088-.484-.352,0-3.674,3.5T10.978-1.5a2.829,2.829,0,0,1-.836-.33,3.777,3.777,0,0,1-.836-.506q-.484-.484-.484-2.728t2.508-7.656a15.555,15.555,0,0,0,.748-1.54,10.9,10.9,0,0,1,1.848-3.124,5.671,5.671,0,0,1,.7.044,3.341,3.341,0,0,1,1.122.528,1.99,1.99,0,0,1,.946,1.276,5.619,5.619,0,0,1-1.232,3.344,13.367,13.367,0,0,0-1.276,2.86,5.553,5.553,0,0,0-.55.968A5.846,5.846,0,0,0,13.222-7.436Zm18.92,2.464a.5.5,0,0,0,.308.638,2.063,2.063,0,0,0,1.32-.2,9.71,9.71,0,0,0,2.2-1.3,10.108,10.108,0,0,0,1.87-1.694,5.7,5.7,0,0,0,.946-1.914,1.839,1.839,0,0,0-.66-2.046q-1.232-.968-2.948.616A10.5,10.5,0,0,0,32.142-4.972ZM42.328.418a2.161,2.161,0,0,1-.66.308q-.286.066-.792.154A1.323,1.323,0,0,1,39.842.572a2.62,2.62,0,0,1-.792-.924,16.1,16.1,0,0,1-.484-4.312l-1.8,1.628Q33.99-.44,31.614-.44a4.01,4.01,0,0,1-1.782-1.188,6.023,6.023,0,0,1-1.386-1.8q-.528-1.276.4-4.2a13.014,13.014,0,0,1,2.508-4.73,6.429,6.429,0,0,1,3.608-2.75,4.558,4.558,0,0,1,3.828.374q1.408.7,1.584-.264.044-.176,1.21-3.784a68.253,68.253,0,0,1,3.19-7.92q.88-1.848,1.8-1.76a2.643,2.643,0,0,1,1.254.374,2.092,2.092,0,0,1,.968,1.1,1.84,1.84,0,0,1-.2,1.606,46.67,46.67,0,0,0-2.816,6.468q-1.672,4.488-2.376,7.04a28.454,28.454,0,0,0-.858,6.292,16.24,16.24,0,0,0,.11,4.312A6.362,6.362,0,0,1,42.724-.2.774.774,0,0,1,42.328.418ZM59.84-17.82a4.42,4.42,0,0,1,1.078,1.54,4.348,4.348,0,0,1,.528,1.628,5.586,5.586,0,0,1-1.056,2.2q-.572,1.144-.594,1.254a.98.98,0,0,1-.088.242.859.859,0,0,1-.088.154,1.331,1.331,0,0,0-.088.11q-.066.088-.11.088a.214.214,0,0,0-.11.044.11.11,0,0,1-.132,0,1.365,1.365,0,0,0-.506-.022q-.44.022-1.056-.638A1.956,1.956,0,0,1,57-12.54a2.328,2.328,0,0,1,.4-1.276,2.787,2.787,0,0,0,.4-.726q0-.11-.4-.11a5.915,5.915,0,0,0-2.926,1.276,3.535,3.535,0,0,0-1.87,2.838A5.274,5.274,0,0,0,53.394-7.7a7.819,7.819,0,0,1,1.034,2.09A8.469,8.469,0,0,1,55.11-2.6,2.4,2.4,0,0,1,53.944-.528a5.654,5.654,0,0,1-3.212.792,5.425,5.425,0,0,1-3.608-1.32,3.666,3.666,0,0,1-1.562-2.728q0-.748.616-.748a9.125,9.125,0,0,1,1.232.682,3.636,3.636,0,0,0,1.76.638q1.76,0,1.936-.968a4.728,4.728,0,0,0-.616-1.848A11.713,11.713,0,0,1,48.774-12.1q0-1.54,3.036-3.74a11.543,11.543,0,0,1,5.06-2.42A5.9,5.9,0,0,1,59.84-17.82Z" transform="matrix(0.998, -0.07, 0.07, 0.998, 1101, 674)" fill="#ff595a"/>
    <path id="Path_854" data-name="Path 854" d="M2.495,10.955S73.526-1.017,118.458.063" transform="matrix(1, 0.017, -0.017, 1, 1044.424, 675.989)" fill="none" stroke="#ff595a" stroke-linecap="round" stroke-width="2"/>
  </g>
</svg>
