<svg xmlns="http://www.w3.org/2000/svg" width="52" height="52" viewBox="0 0 52 52">
  <path id="User" d="M194,1243a26,26,0,1,0,26,26,26,26,0,0,0-26-26Zm-22.455,26a22.455,22.455,0,1,1,40.1,13.851,22.72,22.72,0,0,0-11.213-8.733,11.243,11.243,0,0,0,3.018-7.776c0-5.862-4.242-10.636-9.455-10.636s-9.455,4.775-9.455,10.636a11.189,11.189,0,0,0,3.256,8.013,21.05,21.05,0,0,0-10.991,9.088A22.394,22.394,0,0,1,171.545,1269Zm23.045,4.136c-.649,0-1.293.048-1.933.106-2.615-.72-4.567-3.534-4.567-6.9,0-3.912,2.646-7.091,5.909-7.091s5.909,3.179,5.909,7.091a7.014,7.014,0,0,1-4.346,6.843C195.24,1273.16,194.918,1273.136,194.591,1273.136Zm-15.146,12.941a17.287,17.287,0,0,1,13.038-9.242,9.167,9.167,0,0,0,1.517.142,8.219,8.219,0,0,0,1.956-.224c5.729.544,10.626,4.479,13.213,8.769A22.372,22.372,0,0,1,179.445,1286.077Z" transform="translate(-168 -1243)" fill="#144F5A" fill-rule="evenodd"/>
</svg>
