<svg xmlns="http://www.w3.org/2000/svg" xmlns:xlink="http://www.w3.org/1999/xlink" width="123" height="123" viewBox="0 0 123 123"><defs><style>.a{stroke:#fff;fill:url(#a);}.b{fill:#fff;}.c{stroke:none;}.d{fill:none;}.e{filter:url(#b);}</style><linearGradient id="a" x1="0.354" y1="-0.731" x2="0.364" y2="1.832" gradientUnits="objectBoundingBox"><stop offset="0" stop-color="#fff"/><stop offset="1" stop-color="#1fb2ef"/></linearGradient><filter id="b" x="0" y="0" width="123" height="123" filterUnits="userSpaceOnUse"><feOffset dy="3" input="SourceAlpha"/><feGaussianBlur stdDeviation="7.5" result="c"/><feFlood flood-opacity="0.161"/><feComposite operator="in" in2="c"/><feComposite in="SourceGraphic"/></filter></defs><g transform="translate(-298.297 -6536.154)"><g class="e" transform="matrix(1, 0, 0, 1, 298.3, 6536.15)"><g class="a" transform="translate(22.5 19.5)"><circle class="c" cx="39" cy="39" r="39"/><circle class="d" cx="39" cy="39" r="38.5"/></g></g><path class="b" d="M19.046,11.491,33.68,26.124a2.572,2.572,0,0,1,0,3.648L31.248,32.2a2.572,2.572,0,0,1-3.648,0L17.217,21.842,6.845,32.214a2.572,2.572,0,0,1-3.648,0L.755,29.783a2.572,2.572,0,0,1,0-3.648L15.388,11.5a2.575,2.575,0,0,1,3.658-.011Z" transform="translate(342.311 6572.417)"/></g></svg>